<svg width="16" height="26" viewBox="0 0 16 26" fill="none" xmlns="http://www.w3.org/2000/svg">
<path d="M3.52671 10.5267C3.58868 10.5892 3.66242 10.6388 3.74366 10.6726C3.8249 10.7065 3.91203 10.7239 4.00004 10.7239C4.08805 10.7239 4.17519 10.7065 4.25643 10.6726C4.33767 10.6388 4.4114 10.5892 4.47337 10.5267L7.52671 7.47334C7.58868 7.41086 7.66242 7.36126 7.74366 7.32742C7.8249 7.29357 7.91203 7.27615 8.00004 7.27615C8.08805 7.27615 8.17519 7.29357 8.25643 7.32742C8.33767 7.36126 8.4114 7.41086 8.47337 7.47334L11.5267 10.5267C11.5887 10.5892 11.6624 10.6388 11.7437 10.6726C11.8249 10.7065 11.912 10.7239 12 10.7239C12.088 10.7239 12.1752 10.7065 12.2564 10.6726C12.3377 10.6388 12.4114 10.5892 12.4734 10.5267C12.5975 10.4018 12.6672 10.2328 12.6672 10.0567C12.6672 9.88055 12.5975 9.71159 12.4734 9.58668L9.41337 6.52668C9.03837 6.15214 8.53004 5.94177 8.00004 5.94177C7.47004 5.94177 6.96171 6.15214 6.58671 6.52668L3.52671 9.58668C3.40254 9.71159 3.33285 9.88055 3.33285 10.0567C3.33285 10.2328 3.40254 10.4018 3.52671 10.5267Z" fill="#9096A3"/>
<path d="M12.4733 15.4733C12.4113 15.4108 12.3376 15.3612 12.2563 15.3274C12.1751 15.2935 12.088 15.2761 12 15.2761C11.912 15.2761 11.8248 15.2935 11.7436 15.3274C11.6623 15.3612 11.5886 15.4108 11.5266 15.4733L8.47329 18.5267C8.41132 18.5891 8.33758 18.6387 8.25634 18.6726C8.1751 18.7064 8.08797 18.7239 7.99996 18.7239C7.91195 18.7239 7.82481 18.7064 7.74357 18.6726C7.66233 18.6387 7.5886 18.5891 7.52663 18.5267L4.47329 15.4733C4.41132 15.4108 4.33758 15.3612 4.25634 15.3274C4.1751 15.2935 4.08797 15.2761 3.99996 15.2761C3.91195 15.2761 3.82481 15.2935 3.74357 15.3274C3.66233 15.3612 3.5886 15.4108 3.52663 15.4733C3.40246 15.5982 3.33276 15.7672 3.33276 15.9433C3.33276 16.1194 3.40246 16.2884 3.52663 16.4133L6.58663 19.4733C6.96163 19.8479 7.46996 20.0582 7.99996 20.0582C8.52996 20.0582 9.03829 19.8479 9.41329 19.4733L12.4733 16.4133C12.5975 16.2884 12.6672 16.1194 12.6672 15.9433C12.6672 15.7672 12.5975 15.5982 12.4733 15.4733Z" fill="#9096A3"/>
</svg>
